<?xml version="1.0" encoding="UTF-8"?>
<!DOCTYPE svg PUBLIC "-//W3C//DTD SVG 1.1//EN" "http://www.w3.org/Graphics/SVG/1.1/DTD/svg11.dtd">
<svg xmlns="http://www.w3.org/2000/svg" version="1.1" width="255px" height="198px" style="shape-rendering:geometricPrecision; text-rendering:geometricPrecision; image-rendering:optimizeQuality; fill-rule:evenodd; clip-rule:evenodd" xmlns:xlink="http://www.w3.org/1999/xlink">
<g><path style="opacity:0.976" fill="#000000" d="M 116.5,2.5 C 117.721,1.53537 119.054,1.70204 120.5,3C 125.598,8.04066 130.098,13.5407 134,19.5C 139.514,30.2097 144.347,41.2097 148.5,52.5C 181.167,37.0997 215.501,30.4331 251.5,32.5C 219.905,41.0875 189.572,52.9208 160.5,68C 146.574,75.4256 134.24,84.9256 123.5,96.5C 123.167,96 122.833,95.5 122.5,95C 126.798,75.3899 128.631,55.5565 128,35.5C 126.941,27.2638 124.941,19.2638 122,11.5C 120.643,8.10194 118.81,5.10194 116.5,2.5 Z"/></g>
<g><path style="opacity:0.937" fill="#000000" d="M 104.5,60.5 C 105.586,60.62 106.253,61.2867 106.5,62.5C 110.181,77.5587 114.015,92.5587 118,107.5C 142.982,95.17 167.982,82.8367 193,70.5C 203.611,77.9449 213.777,85.9449 223.5,94.5C 190.842,99.4749 158.175,104.308 125.5,109C 155.58,115.187 185.58,121.687 215.5,128.5C 195.469,136.789 175.303,144.789 155,152.5C 144.333,141.167 133.667,129.833 123,118.5C 126.843,130.526 131.01,142.526 135.5,154.5C 113.834,155.697 92.1672,156.53 70.5,157C 80.6311,145.2 91.1311,133.7 102,122.5C 102.667,121.833 102.667,121.167 102,120.5C 78.4872,137.924 55.1539,155.59 32,173.5C 21.5,161.167 11,148.833 0.5,136.5C 0.709312,135.914 1.04265,135.414 1.5,135C 29.5,128 57.5,121 85.5,114C 59.6294,115.87 33.7961,118.37 8,121.5C 7.5,121.167 7,120.833 6.5,120.5C 12.7531,106.987 19.7531,93.9873 27.5,81.5C 53.1191,89.1524 78.7857,96.319 104.5,103C 85.5153,93.5089 66.8487,83.5089 48.5,73C 67.2879,68.8782 85.9545,64.7116 104.5,60.5 Z"/></g>
<g><path style="opacity:0.052" fill="#000000" d="M 216.5,166.5 C 217.675,166.281 218.675,166.614 219.5,167.5C 217.948,168.798 216.948,168.465 216.5,166.5 Z"/></g>
<g><path style="opacity:0.004" fill="#000000" d="M 56.5,167.5 C 57.8333,168.167 57.8333,168.167 56.5,167.5 Z"/></g>
<g><path style="opacity:0.045" fill="#000000" d="M 186.5,167.5 C 188.337,167.639 188.67,168.306 187.5,169.5C 186.702,169.043 186.369,168.376 186.5,167.5 Z"/></g>
<g><path style="opacity:0.004" fill="#000000" d="M 54.5,169.5 C 54.8417,168.662 55.5084,168.328 56.5,168.5C 56.1583,169.338 55.4916,169.672 54.5,169.5 Z"/></g>
<g><path style="opacity:0.004" fill="#000000" d="M 54.5,169.5 C 53.8333,170.167 53.8333,170.167 54.5,169.5 Z"/></g>
<g><path style="opacity:0.004" fill="#000000" d="M 52.5,171.5 C 53.8333,172.167 53.8333,172.167 52.5,171.5 Z"/></g>
<g><path style="opacity:0.029" fill="#000000" d="M 106.5,174.5 C 107.675,174.281 108.675,174.614 109.5,175.5C 107.473,177.339 105.14,177.839 102.5,177C 103.858,176.066 105.192,175.232 106.5,174.5 Z"/></g>
<g><path style="opacity:0.011" fill="#000000" d="M 194.5,182.5 C 195.5,182.5 196.5,182.5 197.5,182.5C 197.5,183.833 197.5,185.167 197.5,186.5C 196.5,186.5 195.5,186.5 194.5,186.5C 194.5,185.167 194.5,183.833 194.5,182.5 Z"/></g>
<g><path style="opacity:0.015" fill="#000000" d="M 186.5,183.5 C 187.5,183.5 188.5,183.5 189.5,183.5C 189.778,185.346 189.111,186.68 187.5,187.5C 186.571,186.311 186.238,184.978 186.5,183.5 Z"/></g>
<g><path style="opacity:0.004" fill="#000000" d="M 130.5,195.5 C 131.833,196.167 131.833,196.167 130.5,195.5 Z"/></g>
<g><path style="opacity:0.004" fill="#000000" d="M 152.5,195.5 C 153.833,196.167 153.833,196.167 152.5,195.5 Z"/></g>
<g><path style="opacity:0.01" fill="#000000" d="M 217.5,196.5 C 217.897,195.475 218.563,195.308 219.5,196C 218.906,196.464 218.239,196.631 217.5,196.5 Z"/></g>
<g><path style="opacity:0.004" fill="#000000" d="M 231.5,196.5 C 231.897,195.475 232.563,195.308 233.5,196C 232.906,196.464 232.239,196.631 231.5,196.5 Z"/></g>
</svg>